<svg width="34" height="34" viewBox="0 0 34 34" fill="none" xmlns="http://www.w3.org/2000/svg">
<path d="M15.4432 10.3399L15.7499 10.3315H28.2499C29.6332 10.3314 30.9641 10.8605 31.9697 11.8104C32.9753 12.7602 33.5795 14.0588 33.6582 15.4399L33.6665 15.7482V28.2482C33.6666 29.6318 33.1373 30.9629 32.1871 31.9686C31.2369 32.9743 29.9379 33.5782 28.5565 33.6565L28.2499 33.6649H15.7499C14.3663 33.665 13.0352 33.1356 12.0295 32.1854C11.0238 31.2352 10.4199 29.9362 10.3415 28.5549L10.3332 28.2499V15.7499C10.3331 14.3663 10.8625 13.0352 11.8127 12.0295C12.7629 11.0238 14.0619 10.4199 15.4432 10.3415V10.3399ZM28.2499 12.8315H15.7499C15.0179 12.8316 14.3127 13.1068 13.7742 13.6027C13.2358 14.0985 12.9034 14.7787 12.8432 15.5082L12.8332 15.7482V28.2482C12.8333 28.9805 13.1088 29.6859 13.605 30.2244C14.1011 30.7629 14.7817 31.095 15.5115 31.1549L15.7499 31.1649H28.2499C28.9821 31.1648 29.6876 30.8893 30.2261 30.3931C30.7646 29.8969 31.0967 29.2163 31.1565 28.4865L31.1665 28.2482V15.7482C31.1665 14.9747 30.8593 14.2328 30.3123 13.6858C29.7653 13.1388 29.0234 12.8315 28.2499 12.8315ZM21.9999 15.3332C22.3314 15.3332 22.6493 15.4649 22.8838 15.6993C23.1182 15.9337 23.2499 16.2517 23.2499 16.5832V20.7465H27.4165C27.7481 20.7465 28.066 20.8782 28.3004 21.1127C28.5348 21.3471 28.6665 21.665 28.6665 21.9965C28.6665 22.3281 28.5348 22.646 28.3004 22.8804C28.066 23.1148 27.7481 23.2465 27.4165 23.2465H23.2499V27.4165C23.2499 27.7481 23.1182 28.066 22.8838 28.3004C22.6493 28.5348 22.3314 28.6665 21.9999 28.6665C21.6684 28.6665 21.3504 28.5348 21.116 28.3004C20.8816 28.066 20.7499 27.7481 20.7499 27.4165V23.2465H16.5832C16.2517 23.2465 15.9337 23.1148 15.6993 22.8804C15.4649 22.646 15.3332 22.3281 15.3332 21.9965C15.3332 21.665 15.4649 21.3471 15.6993 21.1127C15.9337 20.8782 16.2517 20.7465 16.5832 20.7465H20.7499V16.5832C20.7499 16.2517 20.8816 15.9337 21.116 15.6993C21.3504 15.4649 21.6684 15.3332 21.9999 15.3332ZM22.9699 4.05487L23.0565 4.34987L24.2115 8.6632H21.6232L20.6432 4.99654C20.5442 4.62635 20.3732 4.27931 20.14 3.97525C19.9068 3.67118 19.6159 3.41605 19.2841 3.22443C18.9522 3.03282 18.5859 2.90847 18.206 2.8585C17.826 2.80853 17.44 2.83391 17.0699 2.9332L4.99654 6.16987C4.29175 6.35886 3.6834 6.80517 3.29155 7.42072C2.8997 8.03626 2.75281 8.77633 2.87987 9.49487L2.9332 9.74154L6.16987 21.8149C6.32169 22.3822 6.64124 22.8905 7.08671 23.2732C7.53217 23.6559 8.08281 23.8953 8.66654 23.9599V26.4699C7.58291 26.4053 6.54364 26.0168 5.68336 25.3547C4.82308 24.6926 4.18144 23.7875 3.84154 22.7565L3.75487 22.4632L0.519869 10.3882C0.16154 9.05216 0.327929 7.62965 0.984915 6.41237C1.6419 5.19508 2.7397 4.27527 4.0532 3.84154L4.34987 3.75487L16.4232 0.519869C17.7592 0.16154 19.1818 0.327929 20.399 0.984915C21.6163 1.6419 22.5361 2.7397 22.9699 4.0532V4.05487Z" fill="#908294"/>
</svg>
